# xmcd
#
# Track frame offsets:
#	150
#	10497
#	28594
#	30520
#	42072
#
# Disc length: 586 seconds
#
# Revision: 1
# Processed by: cddbd v1.5.1PL2 Copyright (c) Steve Scherf et al.
# Submitted via: EasyCDDAExtractor 5.0.6
#
DISCID=30024805
DTITLE=J. Twiz - Promotional CD
DYEAR=2006
DGENRE=Hip-Hop
TTITLE0=Promo Track 1
TTITLE1=Promo Track 2
TTITLE2=Promo Track 3
TTITLE3=Promo Track 4
TTITLE4=Promo Track 5
EXTD=
EXTT0=
EXTT1=
EXTT2=
EXTT3=
EXTT4=
PLAYORDER=
